<svg xmlns="http://www.w3.org/2000/svg" viewBox="0 0 493.39 490.05"><defs><style>.cls-1{fill:#3d2683;}.cls-2{fill:none;}</style></defs><g id="Calque_2" data-name="Calque 2"><g id="Calque_1-2" data-name="Calque 1"><path class="cls-1" d="M.06,490.05q0-243.48-.06-487C0,.57.57,0,3.12,0Q246.69.11,490.27,0c2.55,0,3.12.57,3.12,3.09q-.11,243.48-.06,487c-1.35-.1-2.69-.29-4-.29H4.1C2.75,489.76,1.41,490,.06,490.05Zm5.2-245.49V479.11c0,4.77,0,4.78,4.73,4.78H483.84c4.78,0,4.78,0,4.78-4.85V9.94c0-4.66,0-4.66-4.83-4.66H9.94c-4.68,0-4.68,0-4.68,4.73Z"/><path class="cls-1" d="M273.67,302.53l30.9,16.78-.25.68h-120c.37-1.34,1.52-1.49,2.34-1.93,9.33-5.06,18.7-10.07,28-15.12.94-.52,2.55-.74,2.48-2s-1.73-1.14-2.74-1.43c-7.8-2.25-15.46-4.87-22.57-8.93,4.11,1.44,8.17,3,12.34,4.29,4,1.2,8.14,1.95,12.14,3.14,1.32.39,4.13-.73,3.46,2.62-.13.65,1.29.7,2,.86a123.63,123.63,0,0,0,47.57.93c.72-.12,1.75,0,1.87-1,.09-.78-.78-1-1.33-1.34s-1-.56-1.47-.85-.93-.59-1.42-.9c.52-1.49,1.89-1.21,2.84-1.48C315.39,284,342,253.42,352.63,208.9c7.34-30.67,4.21-60.89-10.05-89.3-17.46-34.79-45-57.06-84.54-62.94C221,51.15,188.36,61.37,160,85.21c-22.92,19.27-36.28,44-41.47,73.12q-.47,2.64-.78,5.3c-.2,1.66-.31,3.32-.5,5.46-1.07-20.29,7.07-49.31,27.15-75.59C161.57,71,184,56.15,211.32,48.3,285.61,27,346.4,70,368.67,119.87c16.89,37.84,16.66,76.35-3.16,113.35-19.64,36.66-50.49,59.59-91.9,68.34Z"/><path class="cls-1" d="M255,240.22c-1.27-.55-2.24.25-3.23.6q-12,4.31-23.89,8.73c-1,.35-2.84.57-2.16,2,1.56,3.21-1,3.25-2.71,3.87-26.24,9.33-53.1,15.89-81,17.47-13.16.74-26.28.34-38.95-3.93-9.08-3.05-16.72-8-21.29-16.65-5.25-10-2.88-19.3,2.65-28.29a66,66,0,0,1,14.39-16c16.92-14,36.06-24.26,56.39-32.41a382.68,382.68,0,0,1,130.55-27.42c.32,0,.64,0,1.94.12-19.28,3-37.52,6.39-55.49,11-31.32,8-61.87,18.09-90.07,34.15-10,5.67-19.18,12.26-26.75,21-14,16.14-9.6,35,10.27,43.52,9.55,4.09,19.59,5.4,29.85,5.33,23.1-.17,45.33-5.28,67.32-11.75,3-.88,2.23-2.89,2.17-4.79-.35-10.13,6.14-17.82,15.87-18.76a17.91,17.91,0,0,1,18.42,12,17.39,17.39,0,0,1-8.12,20.49,17.93,17.93,0,0,1-22-3.66c-1.56-1.75-1.47-2.55.83-3.45a132,132,0,0,0,22-10.54C253.05,242.08,254.42,241.66,255,240.22Z"/><path class="cls-1" d="M135.83,255.38C128.29,249,119.9,243.17,119.69,232c-.16-8.11,4.56-13.89,10.14-19,9.87-9,21.7-14.94,33.88-20.17,30.15-12.92,61.74-21.29,93.62-28.68q41.18-9.55,83.11-15.54c-3,.87-6,1.77-9,2.6-37,10.3-74.38,19.49-110.9,31.53-21.27,7-42.34,14.57-61.88,25.67-8.27,4.7-16.25,9.84-22.3,17.33-7.82,9.67-8.13,18.35-1.19,28.61Z"/><path class="cls-1" d="M264.26,297.54a122.67,122.67,0,0,1-40.58,1.11c1.34-1.76,3-2.2,4.38-3,2.15-1.24,4.58-2.1,6.49-3.62,6.75-5.4,13.21-5.2,20,.05C257.23,294.14,260.51,295.47,264.26,297.54Z"/><path class="cls-1" d="M73.72,363.19v7h32.4v13.58a18.28,18.28,0,0,1-2.55,9.53,20.05,20.05,0,0,1-6.67,7,21.51,21.51,0,0,1-4.76,2.14,20.32,20.32,0,0,1-5.4.72H67.21l6.51-6.51h13a12.77,12.77,0,0,0,12.79-12.87v-7.06H67.21v-13.5a19.57,19.57,0,0,1,9.13-16.52,17.26,17.26,0,0,1,4.84-2.14,18,18,0,0,1,5.4-.8h19.54q-2.24,2.24-6.59,6.51h-13a12.89,12.89,0,0,0-12.86,12.95Z"/><path class="cls-1" d="M357.11,370.89a4.38,4.38,0,0,0-3.81,1.75,5.15,5.15,0,0,0-1.35,3.25,4.2,4.2,0,0,0,1.35,3.34,5.66,5.66,0,0,0,3.89,1.27h15.32a11.76,11.76,0,0,1,8.42,3.17,10.38,10.38,0,0,1,3.33,7.94,11.6,11.6,0,0,1-3.25,7.86,10.85,10.85,0,0,1-8.5,3.66H351.87q-2.14-2.14-6.44-6.51h27.08A4.73,4.73,0,0,0,376.4,395a5.56,5.56,0,0,0,1.35-3.34,4.09,4.09,0,0,0-1.43-3.33,5.5,5.5,0,0,0-3.81-1.27h-15.4a11.44,11.44,0,0,1-8.34-3.18,10.36,10.36,0,0,1-3.34-7.94,11.84,11.84,0,0,1,3.26-7.86,10.62,10.62,0,0,1,8.42-3.65h20.64l6.51,6.51Z"/><path class="cls-1" d="M422.14,370.89a4.38,4.38,0,0,0-3.81,1.75,5.15,5.15,0,0,0-1.35,3.25,4.2,4.2,0,0,0,1.35,3.34,5.66,5.66,0,0,0,3.89,1.27h15.32a11.76,11.76,0,0,1,8.42,3.17,10.38,10.38,0,0,1,3.33,7.94,11.6,11.6,0,0,1-3.25,7.86,10.85,10.85,0,0,1-8.5,3.66H416.9q-2.14-2.14-6.44-6.51h27.08a4.73,4.73,0,0,0,3.89-1.67,5.56,5.56,0,0,0,1.35-3.34,4.06,4.06,0,0,0-1.43-3.33,5.5,5.5,0,0,0-3.81-1.27h-15.4a11.44,11.44,0,0,1-8.34-3.18,10.36,10.36,0,0,1-3.34-7.94,11.84,11.84,0,0,1,3.26-7.86,10.62,10.62,0,0,1,8.42-3.65h20.64l6.51,6.51Z"/><path class="cls-2" d="M61.19,427a5.93,5.93,0,1,0,5.94,5.89A5.94,5.94,0,0,0,61.19,427Z"/><path class="cls-1" d="M153.28,418.27V370.81q-1.59-1.67-3.41-3.41t-3.1-3.1v19.37a12.89,12.89,0,0,1-12.86,12.87,12.58,12.58,0,0,1-9.13-3.74,12.4,12.4,0,0,1-3.74-9.13V364.3l-3.41,3.41q-1.51,1.44-3.1,3.1v12.86a19.57,19.57,0,0,0,9.13,16.52,17.32,17.32,0,0,0,4.85,2.14,18.68,18.68,0,0,0,12.38-.55,19.45,19.45,0,0,0,5.88-3.66v18.35h-16.9c-6.58,0-13.16,0-19.74,0a6.72,6.72,0,0,0-4.47,1.61c-4.52,3.75-9.07,7.47-13.59,11.21a2.54,2.54,0,0,1-1.71.62q-8.26,0-16.53,0a1.23,1.23,0,0,1-1.44-1,11.87,11.87,0,0,0-23.06,4.82,11.88,11.88,0,0,0,23,3.31,1.53,1.53,0,0,1,1.78-1.19c5.63,0,11.25,0,16.88,0a6.52,6.52,0,0,0,4.38-1.54c4.53-3.74,9.08-7.45,13.6-11.21a2.79,2.79,0,0,1,1.92-.69q15.4,0,30.8.06c2.77,0,5.54,0,8.32,0,2,0,3.28-1.18,3.3-3m-92,19.32a5.93,5.93,0,1,1,5.85-6A5.91,5.91,0,0,1,61.28,438.82Z"/><path class="cls-2" d="M152.11,449.14a5.78,5.78,0,1,0,6,5.67A5.83,5.83,0,0,0,152.11,449.14Z"/><path class="cls-2" d="M397.12,349.83a5.83,5.83,0,0,0-5.79,5.62,5.75,5.75,0,0,0,5.68,5.94,5.83,5.83,0,0,0,5.9-5.64A5.94,5.94,0,0,0,397.12,349.83Z"/><path class="cls-1" d="M407.9,351.31a11.63,11.63,0,0,0-22.42,4.82,11.51,11.51,0,0,0,7.74,10.44,1.21,1.21,0,0,1,1,1.38c0,6.28,0,12.55,0,18.82s0,53.21,0,59.48a1.83,1.83,0,0,1-.23,1.21c-2.6,3.67-2.82,3.8-7.24,3.81,0,0-216.68.68-222,.72a1.33,1.33,0,0,1-1.49-1,11.12,11.12,0,0,0-9.32-7.57,11.62,11.62,0,1,0-.83,23.11A11.1,11.1,0,0,0,163.14,459a1.53,1.53,0,0,1,1.72-1.19c5.42,0,221.54-.69,221.54-.69,1.74,0,3.49,0,5.23,0a3.53,3.53,0,0,0,2.92-1.38c1.17-1.4,2.33-2.8,3.56-4.13a7,7,0,0,0,1.92-5.06c0-12.62,0-65.9,0-78.53a1.28,1.28,0,0,1,1-1.49A11.54,11.54,0,0,0,407.9,351.31ZM152.41,460.69a5.78,5.78,0,0,1-.3-11.55,5.78,5.78,0,1,1,.3,11.55ZM397,361.39a5.75,5.75,0,0,1-5.68-5.94,5.83,5.83,0,0,1,5.79-5.62,5.94,5.94,0,0,1,5.79,5.92A5.83,5.83,0,0,1,397,361.39Z"/><path class="cls-2" d="M82,449.09a5.78,5.78,0,1,0,6,5.67A5.82,5.82,0,0,0,82,449.09Z"/><path class="cls-2" d="M82,449.09a5.78,5.78,0,1,0,6,5.67A5.82,5.82,0,0,0,82,449.09Z"/><path class="cls-1" d="M351.45,418.36a7,7,0,0,0-2.6-5.68c-4.29-3.8-14-12.23-18.29-16.07H315.82a12.15,12.15,0,0,1-9.05-3.82,12.88,12.88,0,0,1,17-19.29,13.15,13.15,0,0,1,4.52,6.91H315.9q-4.29,4.36-6.51,6.51h25.88c.05-.64.08-1.3.08-2a3.08,3.08,0,0,0,.08-.71,10.83,10.83,0,0,0-.08-1.27,17,17,0,0,0-1-5.24,16.7,16.7,0,0,0-2.23-4.61,19.19,19.19,0,0,0-6.9-6.43,19.45,19.45,0,0,0-9.45-2.38,19.75,19.75,0,0,0-5.32.71,21.23,21.23,0,0,0-4.85,2.15,20.11,20.11,0,0,0-6.67,7,18.82,18.82,0,0,0-2.46,9.53,19.68,19.68,0,0,0,.72,5.4,21.2,21.2,0,0,0,2.14,4.85,19.48,19.48,0,0,0,6.91,6.67,18.66,18.66,0,0,0,9.53,2.54h10.24l3.15,0,3,2.46c4.3,3.79,8.5,7.69,12.76,11.53a1.81,1.81,0,0,1,.65,1.5c0,3.6-.06,7.2,0,10.8,0,1.16-.25,1.48-1.45,1.48L321,430.76H286.6V383.67a20.32,20.32,0,0,0-.72-5.4,21.51,21.51,0,0,0-2.14-4.76,19.24,19.24,0,0,0-23.5-7.86,19.76,19.76,0,0,0-5.88,3.57V343.73l-4.45,4.45-2.06,2.06v46.38l3.41,3.41,3.1,3.1V383.67a12.29,12.29,0,0,1,3.81-9.13,12.59,12.59,0,0,1,9.13-3.73,12.29,12.29,0,0,1,9.05,3.73,12.42,12.42,0,0,1,3.74,9.13v47.08H228.24v-60h9.37v-6.51h-9.37V351q-4.38,4.36-6.59,6.51v6.67h-9.37v6.51h9.37v60H202v-47a19.36,19.36,0,0,0-9.21-16.43,21.54,21.54,0,0,0-4.76-2.15,18.52,18.52,0,0,0-5.4-.79,18.77,18.77,0,0,0-5.48.79,21.54,21.54,0,0,0-4.76,2.15,19.28,19.28,0,0,0-6.67,6.9,18.58,18.58,0,0,0-2.54,9.53v19.38l6.51-6.51V383.75a12.33,12.33,0,0,1,3.73-9.05,12.55,12.55,0,0,1,9.21-3.81,13,13,0,0,1,12.86,12.86v47H186.9q-24.1,0-48.21,0a6.73,6.73,0,0,0-4.47,1.61c-4.39,3.62-17.49,15.33-21.88,18.95a2.59,2.59,0,0,1-1.78.64c-5.34,0-10.69,0-16,0a1.33,1.33,0,0,1-1.48-1.05,11.14,11.14,0,0,0-9.32-7.57,11.62,11.62,0,1,0-.85,23.11c4.89-.32,8.3-3,10.12-7.51a1.53,1.53,0,0,1,1.72-1.18c5.42,0,10.84,0,16.26,0a7,7,0,0,0,4.79-1.69C120,452.57,133,441,137.19,437.48a3.66,3.66,0,0,1,2.5-.91c25.21,0,104.2,0,151.47,0l29,.16H345c4.06,0,6.4-2.36,6.4-6.43S351.39,422.34,351.45,418.36ZM82.27,460.64a5.78,5.78,0,0,1-.3-11.55,5.78,5.78,0,1,1,.3,11.55Z"/></g></g></svg>