<svg xmlns="http://www.w3.org/2000/svg" viewBox="0 0 737.93 226.52"><defs><style>.cls-1{fill:#3d2683;}.cls-2{fill:none;}</style></defs><g id="Calque_2" data-name="Calque 2"><g id="Calque_1-2" data-name="Calque 1"><path class="cls-1" d="M45.06,35.89V48.78h59.77v25a33.82,33.82,0,0,1-4.69,17.58,37.18,37.18,0,0,1-12.3,12.89,39.57,39.57,0,0,1-8.79,4,37.66,37.66,0,0,1-10,1.32h-36l12-12h24A23.51,23.51,0,0,0,92.67,73.83v-13H33.05V35.89a34.59,34.59,0,0,1,4.69-17.73A34.69,34.69,0,0,1,49.9,5.42a31.9,31.9,0,0,1,8.93-4A33.46,33.46,0,0,1,68.79,0h36q-4.11,4.11-12.16,12H68.79A23,23,0,0,0,52,19,22.93,22.93,0,0,0,45.06,35.89Z"/><path class="cls-1" d="M567.87,50.1q-4.7,0-7,3.22a9.59,9.59,0,0,0-2.5,6,7.76,7.76,0,0,0,2.5,6.15A10.39,10.39,0,0,0,568,67.82h28.27a21.65,21.65,0,0,1,15.53,5.86A19.1,19.1,0,0,1,618,88.33q0,7.77-6,14.5t-15.68,6.74H558.2q-4-4-11.87-12h49.95a8.7,8.7,0,0,0,7.18-3.08A10.2,10.2,0,0,0,606,88.33a7.57,7.57,0,0,0-2.63-6.15,10.24,10.24,0,0,0-7-2.35H567.87q-9.37,0-15.38-5.86a19.05,19.05,0,0,1-6.16-14.64q0-7.62,6-14.51,5.85-6.74,15.53-6.73H606q4.11,4.09,12,12Z"/><path class="cls-1" d="M687.84,50.1q-4.7,0-7,3.22a9.57,9.57,0,0,0-2.49,6,7.75,7.75,0,0,0,2.49,6.15A10.41,10.41,0,0,0,688,67.82h28.28a21.64,21.64,0,0,1,15.52,5.86,19.1,19.1,0,0,1,6.15,14.65q0,7.77-6,14.5t-15.67,6.74H678.17q-4-4-11.87-12h50a8.69,8.69,0,0,0,7.17-3.08,10.2,10.2,0,0,0,2.49-6.15,7.57,7.57,0,0,0-2.63-6.15,10.23,10.23,0,0,0-7-2.35H687.84q-9.37,0-15.38-5.86a19.05,19.05,0,0,1-6.16-14.64q0-7.62,6-14.51,5.85-6.74,15.53-6.73h38.08q4.11,4.09,12,12Z"/><path class="cls-2" d="M21.94,153.54a10.94,10.94,0,1,0,11,10.86A10.94,10.94,0,0,0,21.94,153.54Z"/><path class="cls-1" d="M191.84,137.5V50q-2.93-3.08-6.3-6.3c-2.15-2.24-4-4.15-5.71-5.71V73.68A23.75,23.75,0,0,1,156.1,97.41a23.22,23.22,0,0,1-16.85-6.88,22.92,22.92,0,0,1-6.88-16.85V37.94l-6.3,6.3q-2.79,2.64-5.71,5.71V73.68a36,36,0,0,0,16.84,30.47,32.09,32.09,0,0,0,8.94,4,34.65,34.65,0,0,0,22.85-1,36.15,36.15,0,0,0,10.84-6.74v33.85H148.65c-12.13,0-24.27,0-36.41,0a12.3,12.3,0,0,0-8.24,3c-8.34,6.91-16.74,13.76-25.09,20.67A4.55,4.55,0,0,1,75.76,159q-15.24-.08-30.49,0c-1.42,0-2.13-.3-2.66-1.79A21.9,21.9,0,0,0,.07,166.06c.93,11.37,8.6,18.42,17.69,20.08,11.17,2,21.14-3.85,24.73-14,.67-1.87,1.58-2.21,3.29-2.2,10.38.05,20.77,0,31.15.05A12,12,0,0,0,85,167.19c8.36-6.9,16.76-13.74,25.1-20.67a5.07,5.07,0,0,1,3.55-1.28q28.4.09,56.8.11c5.12,0,10.23,0,15.35-.09,3.68,0,6.06-2.19,6.09-5.49M22.11,175.42a10.94,10.94,0,1,1,10.79-11A10.9,10.9,0,0,1,22.11,175.42Z"/><path class="cls-2" d="M189.68,194.46a10.66,10.66,0,1,0,11,10.46A10.74,10.74,0,0,0,189.68,194.46Z"/><path class="cls-2" d="M641.68,11.25A10.77,10.77,0,0,0,631,21.62a10.69,10.69,0,0,0,21.37.55A11,11,0,0,0,641.68,11.25Z"/><path class="cls-1" d="M661.56,14a21.45,21.45,0,0,0-41.35,8.88,21.2,21.2,0,0,0,14.28,19.26,2.23,2.23,0,0,1,1.79,2.56c-.06,11.58,0,23.15,0,34.72s0,98.15,0,109.72a3.41,3.41,0,0,1-.42,2.24c-4.8,6.76-5.21,7-13.37,7,0,0-399.74,1.26-409.59,1.33a2.43,2.43,0,0,1-2.74-1.92c-3-8-8.84-12.8-17.2-13.95A20.15,20.15,0,0,0,173,192.15c-5.45,7.28-6.07,15.21-1.78,23.14s11.24,11.75,20.17,11.17S206.69,221,210,212.61c.68-1.7,1.41-2.21,3.17-2.2,10,.08,408.71-1.26,408.71-1.26,3.22,0,6.43,0,9.65,0a6.45,6.45,0,0,0,5.39-2.54c2.14-2.58,4.3-5.16,6.57-7.62a13,13,0,0,0,3.54-9.33C647,166.39,647,68.1,647,44.81c0-1.46.3-2.22,1.87-2.76A21.28,21.28,0,0,0,661.56,14ZM190.24,215.77a10.66,10.66,0,0,1-.56-21.31,10.66,10.66,0,1,1,.56,21.31ZM641.48,32.57A10.62,10.62,0,0,1,631,21.62a10.77,10.77,0,0,1,10.69-10.37,11,11,0,0,1,10.68,10.92A10.73,10.73,0,0,1,641.48,32.57Z"/><path class="cls-2" d="M60.29,194.37a10.66,10.66,0,1,0,11,10.46A10.74,10.74,0,0,0,60.29,194.37Z"/><path class="cls-2" d="M60.29,194.37a10.66,10.66,0,1,0,11,10.46A10.74,10.74,0,0,0,60.29,194.37Z"/><path class="cls-1" d="M557.43,137.67a12.92,12.92,0,0,0-4.8-10.47c-7.91-7-25.9-22.56-33.74-29.66-15.82,0-19.19,0-27.2,0a22.5,22.5,0,0,1-16.69-7,22.89,22.89,0,0,1-6.89-16.85,23.7,23.7,0,0,1,38.23-18.75,24.24,24.24,0,0,1,8.35,12.75H491.84q-7.9,8.05-12,12h47.75q.15-1.75.15-3.66a5.32,5.32,0,0,0,.15-1.32,18.66,18.66,0,0,0-.15-2.35A31.27,31.27,0,0,0,526,62.7a31.13,31.13,0,0,0-4.1-8.5,35.43,35.43,0,0,0-12.74-11.87,36.93,36.93,0,0,0-27.25-3.07,39.17,39.17,0,0,0-8.94,4,37.18,37.18,0,0,0-12.3,12.89,34.68,34.68,0,0,0-4.54,17.58,36.54,36.54,0,0,0,1.32,10,38.37,38.37,0,0,0,3.95,8.94,35.75,35.75,0,0,0,12.75,12.3,34.28,34.28,0,0,0,17.57,4.69h18.9l5.82,0,5.52,4.54c7.93,7,15.67,14.19,23.52,21.27a3.37,3.37,0,0,1,1.22,2.77c0,6.64-.12,13.29,0,19.93,0,2.13-.47,2.72-2.68,2.72l-42.7-.22H437.79V73.68a37.61,37.61,0,0,0-1.32-10,40.07,40.07,0,0,0-4-8.79,35.5,35.5,0,0,0-43.35-14.5A36.15,36.15,0,0,0,378.32,47V0l-8.21,8.2L366.3,12V97.56l6.3,6.3,5.72,5.71V73.68a22.65,22.65,0,0,1,7-16.84A23.21,23.21,0,0,1,402.19,50a23.53,23.53,0,0,1,23.59,23.73v86.86H330.12V49.8h17.29v-12H330.12V13.48q-8.06,8.06-12.16,12v12.3H300.68v12H318V160.54H281.78V73.83a34.29,34.29,0,0,0-4.69-17.58,34.12,34.12,0,0,0-12.3-12.74,39.86,39.86,0,0,0-8.79-4,34.35,34.35,0,0,0-10-1.46,34.91,34.91,0,0,0-10.11,1.46,40.07,40.07,0,0,0-8.79,4,35.72,35.72,0,0,0-12.3,12.74,34.29,34.29,0,0,0-4.69,17.58v35.74q8.06-8.05,12-12V73.83a22.75,22.75,0,0,1,6.89-16.7,23.14,23.14,0,0,1,17-7,22.5,22.5,0,0,1,16.7,7,22.5,22.5,0,0,1,7,16.7v86.71h-15.9q-44.48,0-89,0a12.4,12.4,0,0,0-8.25,3c-8.1,6.68-32.25,28.29-40.35,35a4.76,4.76,0,0,1-3.29,1.17c-9.86,0-19.72-.06-29.57,0a2.44,2.44,0,0,1-2.74-1.92c-3-8-8.83-12.81-17.18-14A20.19,20.19,0,0,0,43.6,192c-5.45,7.28-6.08,15.21-1.79,23.14S53,226.94,62,226.37s15.31-5.45,18.66-13.85c.68-1.69,1.41-2.2,3.17-2.19,10,.09,20,0,30,.08a13.05,13.05,0,0,0,8.84-3.14c7.8-6.48,31.7-27.84,39.51-34.32a6.71,6.71,0,0,1,4.61-1.67c46.51,0,192.25,0,279.44,0l53.53.29q22.93,0,45.87,0c7.49,0,11.82-4.35,11.82-11.87C557.42,152.38,557.31,145,557.43,137.67Zm-496.59,78a10.66,10.66,0,0,1-.55-21.31,10.66,10.66,0,1,1,.55,21.31Z"/></g></g></svg>